<?xml version="1.0" encoding="utf-8"?>
<!-- Generator: Adobe Illustrator 21.0.0, SVG Export Plug-In . SVG Version: 6.00 Build 0)  -->
<svg version="1.0" id="Layer_1" xmlns="http://www.w3.org/2000/svg" xmlns:xlink="http://www.w3.org/1999/xlink" x="0px" y="0px"
	 viewBox="0 0 100 99.9" enable-background="new 0 0 100 99.9" xml:space="preserve">
<g>
	<path fill="#FFFFFF" d="M40.3,62.9c-0.1,0-2.4-1.5-3.7-3.7l-12.5,5.5l-4.4,15.2l15-4.6C34.7,75.2,39.9,63.6,40.3,62.9"/>
	<path fill="#FFFFFF" d="M65.9,53.1c0.1-0.1,0.8-3.6-0.1-6.7L82.2,40l17.8,9.9l-17.8,9.4C82.2,59.2,66.9,53.5,65.9,53.1"/>
	<path fill="#FFFFFF" d="M46.8,34.1c0.1-0.1,3.6-0.8,6.7,0.1l6.4-16.4L50,0l-9.4,17.8C40.6,17.8,46.4,33.1,46.8,34.1"/>
	<path fill="#FFFFFF" d="M53.3,65.8c-0.1,0.1-3.6,0.8-6.7-0.1l-6.4,16.4L50,99.9l9.4-17.8C59.4,82.1,53.7,66.9,53.3,65.8"/>
	<path fill="#FFFFFF" d="M63.4,59.1c0,0.1-1.5,2.4-3.7,3.7l5.5,12.5l15.2,4.4l-4.6-15C75.8,64.6,64.2,59.4,63.4,59.1"/>
	<path fill="#FFFFFF" d="M34.1,53.1c-0.1-0.1-0.8-3.6,0.1-6.7L17.8,40L0,49.8l17.8,9.4C17.8,59.2,33.1,53.5,34.1,53.1"/>
	<path fill="#FFFFFF" d="M36.9,40.3c0-0.1,1.5-2.4,3.7-3.7l-5.5-12.5l-15.2-4.4l4.6,15C24.5,34.8,36.1,40,36.9,40.3"/>
	<path fill="#FFFFFF" d="M59.7,36.8c0.1,0,2.4,1.5,3.7,3.7L75.9,35l4.4-15.2l-15,4.6C65.3,24.4,60,36,59.7,36.8"/>
	<path fill="#FFFFFF" d="M50,39.4c5.8,0,10.5,4.7,10.5,10.5S55.8,60.3,50,60.3c-5.8,0-10.5-4.7-10.5-10.5S44.2,39.4,50,39.4"/>
</g>
</svg>
