<?xml version="1.0" encoding="utf-8"?>
<!-- Generator: Adobe Illustrator 21.0.0, SVG Export Plug-In . SVG Version: 6.00 Build 0)  -->
<svg version="1.0" id="Layer_1" xmlns="http://www.w3.org/2000/svg" xmlns:xlink="http://www.w3.org/1999/xlink" x="0px" y="0px"
	 viewBox="0 0 161 46" enable-background="new 0 0 161 46" xml:space="preserve">
<g>
	<path fill="#2B5179" d="M11.7,16c-0.2,0-0.2,0.1-0.2,0.3c-0.1,0.5-0.3,1.1-0.7,1.5c-0.6,0.7-1.7,0.8-3.1,0.8c-2,0-2.6-0.2-3-0.6
		c-0.5-0.5-0.6-2.1-0.6-5.8V7.8c0-3.9,0-4.6,0.1-5.5c0-0.9,0.3-1.3,1-1.4C5.5,0.8,5.9,0.8,6,0.8c0.1,0,0.2-0.1,0.2-0.2
		c0-0.2-0.1-0.2-0.4-0.2c-0.8,0-2.6,0.1-2.7,0.1C3,0.5,1.4,0.4,0.3,0.4C0,0.4-0.2,0.5-0.2,0.6c0,0.1,0.1,0.2,0.2,0.2
		c0.2,0,0.7,0,0.9,0.1c0.8,0.2,1,0.6,1.1,1.4C2,3.1,2,3.8,2,7.8v4.4c0,2.4,0,4.4-0.1,5.5c-0.1,0.7-0.2,1.3-0.7,1.4
		c-0.2,0.1-0.5,0.1-0.8,0.1c-0.2,0-0.2,0.1-0.2,0.2c0,0.2,0.1,0.2,0.4,0.2c0.8,0,2.2-0.1,2.5-0.1c1.5,0,3.1,0.2,6.8,0.2
		c1.3,0,1.4-0.1,1.6-0.7c0.2-0.7,0.4-2.2,0.4-2.5C11.8,16.1,11.8,16,11.7,16"/>
	<path fill="#2B5179" d="M36.3,19.2c-0.3,0-0.6,0-1-0.2c-0.5-0.2-1.3-0.6-2.2-2.8C31.5,12.4,27.6,2,27.2,1c-0.3-0.8-0.4-0.9-0.6-0.9
		s-0.3,0.2-0.6,1l-5.7,15.7c-0.5,1.3-1,2.2-2.1,2.4c-0.2,0-0.6,0-0.7,0c-0.1,0-0.2,0.1-0.2,0.2c0,0.2,0.2,0.2,0.5,0.2
		c1.2,0,2.6-0.1,2.9-0.1c0.3,0,1.4,0.1,2,0.1c0.2,0,0.4,0,0.4-0.2c0-0.1-0.1-0.2-0.3-0.2h-0.3c-0.4,0-1-0.2-1-0.7
		c0-0.5,0.1-1.1,0.4-1.7l1.5-4.5c0.1-0.1,0.1-0.2,0.3-0.2H29c0.1,0,0.2,0.1,0.2,0.2l2.3,6.2c0.2,0.4,0,0.6-0.2,0.7
		c-0.1,0-0.2,0.1-0.2,0.2c0,0.2,0.3,0.2,0.8,0.2c1.7,0,3.6,0,4,0c0.3,0,0.5,0,0.5-0.2C36.5,19.2,36.4,19.2,36.3,19.2 M28.7,11.2
		h-4.8c-0.1,0-0.1-0.1-0.1-0.2L26,4.2c0.1-0.4,0.3-0.4,0.4,0l2.4,6.8C28.8,11.1,28.8,11.2,28.7,11.2"/>
	<path fill="#2B5179" d="M59.2,19.2c-0.2,0-0.9,0-1.5-0.3c-1.1-0.5-1.5-0.9-3.5-2.9c-1-1-5.9-6.4-6.5-7.1c0.5-0.6,4.6-4.9,5.2-5.5
		c1.1-1.1,1.6-1.7,2.6-2.2c0.5-0.2,1-0.4,1.3-0.4C57,0.8,57,0.7,57,0.6c0-0.1-0.1-0.2-0.4-0.2c-0.6,0-2.2,0.1-2.3,0.1
		c-0.6,0-1.3-0.1-1.8-0.1c-0.2,0-0.3,0.1-0.3,0.2c0,0.1,0.1,0.2,0.2,0.2c0.2,0.1,0.3,0.2,0.3,0.5c0,0.4-0.6,1.1-1.3,1.8
		c-0.9,1-5.2,5.6-5.6,6.1h-0.1V7.8c0-3.9,0-4.6,0-5.5c0-0.9,0.2-1.3,0.9-1.4c0.3,0,0.4-0.1,0.6-0.1c0.1,0,0.2-0.1,0.2-0.2
		c0-0.2-0.1-0.2-0.4-0.2c-0.7,0-2.1,0.1-2.3,0.1c-0.1,0-1.5-0.1-2.6-0.1c-0.3,0-0.4,0.1-0.4,0.2c0,0.1,0.1,0.2,0.2,0.2
		c0.2,0,0.6,0,0.8,0.1c0.8,0.2,1,0.6,1,1.4c0,0.8,0,1.5,0,5.5v4.4c0,2.4,0,4.4-0.1,5.5c-0.1,0.7-0.2,1.3-0.7,1.4
		c-0.2,0.1-0.5,0.1-0.7,0.1c-0.1,0-0.2,0.1-0.2,0.2c0,0.2,0.1,0.2,0.4,0.2c0.7,0,2.1-0.1,2.3-0.1c0.2,0,1.6,0.1,2.7,0.1
		c0.3,0,0.4-0.1,0.4-0.2c0-0.1,0-0.2-0.2-0.2c-0.2,0-0.6,0-0.9-0.1c-0.7-0.1-0.9-0.7-0.9-1.4c-0.1-1.1-0.1-3.1-0.1-5.5V9.7H46
		c1.1,1.5,6.2,7.3,7.2,8.2c1,0.9,1.6,1.4,2.9,1.5c0.5,0,1,0,1.6,0H59c0.4,0,0.5-0.1,0.5-0.2C59.5,19.2,59.4,19.2,59.2,19.2"/>
	<path fill="#2B5179" d="M93.1,8.7l-0.8-0.6C89.7,6.2,89,5.3,89,3.9C89,2.1,90.4,1,92.3,1c2.5,0,3.3,1.1,3.4,1.3
		c0.2,0.3,0.3,1,0.4,1.3c0,0.2,0.1,0.3,0.2,0.3c0.1,0,0.2-0.2,0.2-0.6c0-1.7,0.1-2.5,0.1-2.7c0-0.1-0.1-0.2-0.3-0.2
		c-0.2,0-0.4,0-1-0.1c-0.7-0.2-1.5-0.3-2.6-0.3c-3.5,0-5.7,1.8-5.7,4.5c0,1.7,0.7,3.3,3.6,5.5L92,11c2.4,1.8,3.2,2.8,3.2,4.5
		c0,1.6-1.3,3.4-3.9,3.4c-1.8,0-3.6-0.7-4.1-2.6c-0.1-0.4-0.1-0.7-0.1-0.9c0-0.2,0-0.3-0.2-0.3c-0.1,0-0.2,0.1-0.2,0.4
		c0,0.4-0.1,1.4-0.1,2.7c0,0.7,0,0.8,0.4,1c1.1,0.5,2.4,0.7,3.7,0.7c1.5,0,3-0.3,4.1-1.1c1.9-1.2,2.3-3.2,2.3-4.2
		C97.1,12.6,96.3,11,93.1,8.7"/>
	<path fill="#2B5179" d="M113.5,19.2c-0.2,0-0.8,0-1.2-0.1c-0.8-0.1-0.9-0.7-1-1.4c-0.1-1.1-0.1-3.1-0.1-5.5V7.8
		c0-3.9,0-4.6,0.1-5.5c0.1-0.9,0.3-1.3,1-1.4c0.3,0,0.5-0.1,0.6-0.1c0.1,0,0.2-0.1,0.2-0.2c0-0.2-0.1-0.2-0.4-0.2
		c-0.8,0-2.4,0.1-2.5,0.1c-0.1,0-1.8-0.1-2.6-0.1c-0.3,0-0.4,0.1-0.4,0.2c0,0.1,0.1,0.2,0.2,0.2c0.2,0,0.5,0,0.8,0.1
		c0.6,0.1,0.8,0.6,0.9,1.4c0.1,0.8,0.1,1.5,0.1,5.5v4.4c0,2.4,0,4.4-0.1,5.5c-0.1,0.7-0.2,1.3-0.7,1.4c-0.2,0.1-0.5,0.1-0.8,0.1
		c-0.2,0-0.2,0.1-0.2,0.2c0,0.2,0.1,0.2,0.4,0.2c0.8,0,2.4-0.1,2.5-0.1c0.1,0,1.8,0.1,3.2,0.1c0.3,0,0.4-0.1,0.4-0.2
		C113.7,19.2,113.7,19.2,113.5,19.2"/>
	<path fill="#2B5179" d="M129.7,0.4c-1.5,0-3.1,0.1-3.4,0.1c-0.1,0-1.7-0.1-2.9-0.1c-0.3,0-0.4,0.1-0.4,0.2c0,0.1,0.1,0.2,0.2,0.2
		c0.2,0,0.7,0,0.9,0.1c0.8,0.2,1,0.6,1.1,1.4c0.1,0.8,0.1,1.5,0.1,5.5v4.4c0,2.4,0,4.4-0.1,5.5c-0.1,0.7-0.2,1.3-0.7,1.4
		c-0.2,0.1-0.5,0.1-0.8,0.1c-0.2,0-0.2,0.1-0.2,0.2c0,0.2,0.1,0.2,0.4,0.2c0.8,0,2.3-0.1,2.5-0.1c0.3,0,3.4,0.3,5.6,0.3
		c4.3,0,6.6-1.8,7.6-2.9c1.4-1.5,2.7-3.9,2.7-7.1c0-3-1.2-5.1-2.4-6.4C136.8,0.2,132.2,0.4,129.7,0.4 M137.9,16.5
		c-1.5,1.5-3.7,2.3-6,2.3c-3,0-4-0.5-4.3-1c-0.2-0.3-0.3-1.3-0.3-1.9c0-0.5,0-2.8,0-5.5V7.4c0-1.9,0-4.5,0-5.4
		c0-0.3,0.1-0.4,0.3-0.5c0.2-0.1,1.1-0.2,1.6-0.2c3,0,5.9,0.4,8.3,2.9c1,1.1,2.4,3.2,2.4,6.4C140,12.8,139.3,15.3,137.9,16.5"/>
	<path fill="#2B5179" d="M160.8,16.1c-0.1,0-0.2,0.1-0.2,0.4c-0.2,1-0.5,1.5-1.1,1.8c-0.7,0.3-1.8,0.3-2.4,0.3
		c-2.5,0-2.9-0.3-2.9-2.1c0-0.5,0-3.5,0-4.3V10c0-0.1,0.1-0.2,0.2-0.2c0.4,0,2.9,0.1,3.6,0.1c1,0.1,1.2,0.5,1.3,0.9
		c0.1,0.3,0.1,0.6,0.1,0.8c0,0.1,0,0.2,0.2,0.2c0.2,0,0.2-0.3,0.2-0.5c0-0.2,0.1-1.1,0.1-1.6c0.1-0.8,0.2-1.3,0.2-1.4
		c0-0.2-0.1-0.2-0.1-0.2c-0.1,0-0.2,0.1-0.4,0.3c-0.2,0.3-0.6,0.3-1.2,0.4c-0.6,0.1-3.7,0.1-4,0.1c-0.1,0-0.2-0.1-0.2-0.3v-7
		c0-0.2,0.1-0.3,0.2-0.3c0.3,0,3,0,3.5,0.1c1.4,0.2,1.6,0.5,1.8,0.9c0.1,0.3,0.2,0.7,0.2,0.9c0,0.2,0.1,0.3,0.2,0.3
		c0.1,0,0.2-0.2,0.2-0.3c0-0.3,0.1-1.4,0.1-1.7c0.1-0.7,0.2-1,0.2-1.2c0-0.1,0-0.2-0.1-0.2c-0.1,0-0.2,0.1-0.4,0.1
		c-0.2,0-0.6,0.1-1.1,0.1c-0.6,0-5.6,0-5.8,0c-0.1,0-1.7-0.1-2.9-0.1c-0.3,0-0.4,0-0.4,0.2c0,0.1,0.1,0.2,0.2,0.2
		c0.2,0,0.7,0,0.9,0.1c0.8,0.2,1,0.6,1.1,1.4c0,0.8,0,1.5,0,5.5v1.1h-2.2v0.9h2.2v2.4c0,2.4,0,4.4-0.1,5.5c-0.1,0.7-0.2,1.3-0.7,1.4
		c-0.2,0.1-0.5,0.1-0.8,0.1c-0.2,0-0.2,0.1-0.2,0.2c0,0.2,0.1,0.2,0.4,0.2c0.8,0,2.3-0.1,2.5-0.1c0.7,0,2.4,0.2,6.2,0.2
		c1,0,1.2,0,1.4-0.7c0.1-0.5,0.3-2.2,0.3-2.4C161,16.3,161,16.1,160.8,16.1"/>
	<path fill="#2B5179" d="M77,16.1c-0.1,0-0.2,0.1-0.2,0.4c-0.2,1-0.5,1.5-1.1,1.8c-0.7,0.3-1.8,0.3-2.4,0.3c-2.5,0-2.9-0.3-2.9-2.1
		c0-0.5,0-3.5,0-4.3V10c0-0.1,0-0.2,0.2-0.2c0.4,0,2.9,0.1,3.6,0.1c1,0.1,1.2,0.5,1.3,0.9c0.1,0.3,0.1,0.6,0.1,0.8
		c0,0.1,0,0.2,0.2,0.2c0.2,0,0.2-0.3,0.2-0.5c0-0.2,0.1-1.1,0.1-1.6C76,9,76.1,8.5,76.1,8.4c0-0.2,0-0.2-0.1-0.2
		c-0.1,0-0.2,0.1-0.4,0.3c-0.2,0.3-0.6,0.3-1.2,0.4c-0.6,0.1-3.7,0.1-4,0.1c-0.1,0-0.2-0.1-0.2-0.3v-7c0-0.2,0-0.3,0.2-0.3
		c0.3,0,3,0,3.5,0.1c1.4,0.2,1.6,0.5,1.8,0.9c0.1,0.3,0.2,0.7,0.2,0.9c0,0.2,0.1,0.3,0.2,0.3c0.1,0,0.2-0.2,0.2-0.3
		c0.1-0.3,0.1-1.4,0.1-1.7c0.1-0.7,0.2-1,0.2-1.2c0-0.1,0-0.2-0.1-0.2c-0.1,0-0.2,0.1-0.4,0.1c-0.2,0-0.6,0.1-1.1,0.1
		c-0.6,0-5.6,0-5.8,0c-0.1,0-1.7-0.1-2.9-0.1c-0.3,0-0.4,0-0.4,0.2c0,0.1,0.1,0.2,0.2,0.2c0.2,0,0.7,0,0.9,0.1
		c0.8,0.2,1,0.6,1.1,1.4c0,0.8,0,1.5,0,5.5v1.1h-2.1v0.9h2.1v2.4c0,2.4,0,4.4-0.1,5.5c-0.1,0.7-0.2,1.3-0.7,1.4
		c-0.2,0.1-0.5,0.1-0.8,0.1c-0.2,0-0.2,0.1-0.2,0.2c0,0.2,0.1,0.2,0.4,0.2c0.8,0,2.3-0.1,2.5-0.1c0.7,0,2.4,0.2,6.2,0.2
		c1,0,1.2,0,1.4-0.7c0.1-0.5,0.3-2.2,0.3-2.4C77.2,16.3,77.2,16.1,77,16.1"/>
	<path fill="#2B5179" d="M80.5,30.7c0,0-0.3-0.2-0.5-0.5L78.1,31l-0.6,2.2l2.2-0.7C79.6,32.5,80.4,30.9,80.5,30.7"/>
	<path fill="#2B5179" d="M84.2,29.3c0,0,0.1-0.5,0-1l2.4-0.9l2.6,1.4l-2.6,1.4C86.6,30.2,84.4,29.4,84.2,29.3"/>
	<path fill="#2B5179" d="M81.4,26.5c0,0,0.5-0.1,1,0l0.9-2.4l-1.4-2.6l-1.4,2.6C80.5,24.1,81.3,26.4,81.4,26.5"/>
	<path fill="#2B5179" d="M82.4,31.2c0,0-0.5,0.1-1,0l-0.9,2.4l1.4,2.6l1.4-2.6C83.3,33.6,82.4,31.3,82.4,31.2"/>
	<path fill="#2B5179" d="M83.8,30.2c0,0-0.2,0.3-0.5,0.5l0.8,1.8l2.2,0.6L85.7,31C85.7,31,84,30.2,83.8,30.2"/>
	<path fill="#2B5179" d="M79.5,29.3c0,0-0.1-0.5,0-1l-2.4-0.9l-2.6,1.4l2.6,1.4C77.2,30.2,79.4,29.4,79.5,29.3"/>
	<path fill="#2B5179" d="M80,27.4c0,0,0.2-0.3,0.5-0.5l-0.8-1.8l-2.2-0.6l0.7,2.2C78.1,26.6,79.8,27.4,80,27.4"/>
	<path fill="#2B5179" d="M83.3,26.9c0,0,0.3,0.2,0.5,0.5l1.8-0.8l0.6-2.2l-2.2,0.7C84.1,25.1,83.3,26.8,83.3,26.9"/>
	<path fill="#2B5179" d="M81.9,27.3c0.8,0,1.5,0.7,1.5,1.5c0,0.8-0.7,1.5-1.5,1.5c-0.8,0-1.5-0.7-1.5-1.5C80.3,28,81,27.3,81.9,27.3
		"/>
	<polygon fill="#2B5179" points="90.2,28.2 161,28.7 90.2,29.3 	"/>
	<polygon fill="#2B5179" points="73.5,29.3 0.2,28.8 73.5,28.2 	"/>
	<path fill="#2B5179" d="M10.9,41.3c0-1.2,0-1.4,0-1.6c0-0.3-0.1-0.4-0.3-0.4c-0.1,0-0.2,0-0.3,0c-0.1,0-0.1,0-0.1-0.1
		c0-0.1,0.1-0.1,0.2-0.1c0.4,0,0.9,0,1,0c0.3,0,0.8,0,1.1,0c0.5,0,1,0,1.4,0.3c0.2,0.1,0.5,0.5,0.5,1c0,0.6-0.2,1.1-1,1.7
		c0.7,0.9,1.2,1.5,1.7,2c0.4,0.4,0.7,0.5,0.9,0.5c0.1,0,0.2,0,0.2,0c0.1,0,0.1,0,0.1,0.1c0,0.1-0.1,0.1-0.1,0.1h-0.7
		c-0.4,0-0.6,0-0.8-0.1c-0.3-0.2-0.6-0.5-1-1.1c-0.3-0.4-0.7-0.9-0.8-1c0,0-0.1-0.1-0.1-0.1l-0.7,0c0,0-0.1,0-0.1,0.1v0.1
		c0,0.7,0,1.3,0,1.6c0,0.2,0.1,0.4,0.3,0.4c0.1,0,0.3,0,0.4,0c0.1,0,0.1,0,0.1,0.1c0,0.1-0.1,0.1-0.2,0.1c-0.4,0-1,0-1.1,0
		c-0.1,0-0.6,0-0.9,0c-0.1,0-0.2,0-0.2-0.1c0,0,0-0.1,0.1-0.1c0.1,0,0.2,0,0.3,0c0.2,0,0.2-0.2,0.2-0.4c0-0.3,0-0.9,0-1.6V41.3z
		 M11.8,41.9c0,0.1,0,0.1,0.1,0.1c0.2,0.1,0.4,0.1,0.6,0.1c0.3,0,0.4,0,0.5-0.1c0.2-0.2,0.4-0.5,0.4-1.1c0-1.1-0.7-1.4-1.2-1.4
		c-0.2,0-0.3,0-0.4,0c-0.1,0-0.1,0-0.1,0.1V41.9z"/>
	<path fill="#2B5179" d="M20.3,41.3c0-1.2,0-1.4,0-1.6c0-0.3-0.1-0.4-0.3-0.4c-0.1,0-0.2,0-0.3,0c-0.1,0-0.1,0-0.1-0.1
		c0-0.1,0.1-0.1,0.2-0.1c0.4,0,0.9,0,1.1,0c0.2,0,1.8,0,1.9,0c0.1,0,0.3,0,0.3,0c0,0,0.1,0,0.1,0s0,0,0,0.1c0,0.1,0,0.1-0.1,0.5
		c0,0.1,0,0.4,0,0.5c0,0,0,0.1-0.1,0.1s-0.1,0-0.1-0.1c0-0.1,0-0.2,0-0.3c-0.1-0.1-0.1-0.2-0.5-0.3c-0.1,0-0.9,0-1.1,0
		c0,0-0.1,0-0.1,0.1v1.9c0,0.1,0,0.1,0.1,0.1c0.2,0,1,0,1.2,0c0.2,0,0.3,0,0.4-0.1c0.1-0.1,0.1-0.1,0.1-0.1c0,0,0.1,0,0.1,0.1
		c0,0,0,0.2-0.1,0.6c0,0.2,0,0.5,0,0.5c0,0.1,0,0.1-0.1,0.1c-0.1,0-0.1,0-0.1-0.1c0-0.1,0-0.2,0-0.3c0-0.2-0.1-0.3-0.4-0.3
		c-0.1,0-0.9,0-1.1,0c0,0,0,0,0,0.1v0.6c0,0.3,0,1,0,1.2c0,0.5,0.1,0.6,0.9,0.6c0.2,0,0.5,0,0.7-0.1c0.2-0.1,0.3-0.3,0.3-0.6
		c0-0.1,0-0.1,0.1-0.1c0.1,0,0.1,0.1,0.1,0.1c0,0.2-0.1,0.7-0.1,0.8c-0.1,0.2-0.1,0.2-0.4,0.2c-1.1,0-1.7,0-2.1,0c-0.2,0-0.7,0-1,0
		c-0.1,0-0.2,0-0.2-0.1c0,0,0-0.1,0.1-0.1c0.1,0,0.2,0,0.3,0c0.2,0,0.2-0.2,0.2-0.4c0-0.3,0-0.9,0-1.6V41.3z"/>
	<path fill="#2B5179" d="M28.3,44.8c-0.1-0.1-0.1-0.1-0.1-0.3c0-0.4,0-0.9,0-1c0-0.1,0-0.2,0.1-0.2c0.1,0,0.1,0.1,0.1,0.1
		c0,0.1,0,0.3,0.1,0.4c0.2,0.6,0.6,0.8,1.1,0.8c0.7,0,1-0.5,1-0.9c0-0.4-0.1-0.7-0.7-1.2l-0.3-0.3c-0.8-0.7-1.1-1.2-1.1-1.8
		c0-0.8,0.7-1.4,1.8-1.4c0.5,0,0.8,0.1,1,0.1c0.1,0,0.1,0,0.1,0.1c0,0.1,0,0.3,0,0.9c0,0.2,0,0.2-0.1,0.2c-0.1,0-0.1,0-0.1-0.1
		c0-0.1,0-0.3-0.2-0.5c-0.1-0.1-0.3-0.4-0.8-0.4c-0.6,0-0.9,0.3-0.9,0.8c0,0.3,0.2,0.6,0.8,1.1l0.2,0.2c0.9,0.7,1.2,1.2,1.2,1.9
		c0,0.4-0.2,1-0.7,1.3c-0.4,0.2-0.8,0.3-1.2,0.3C28.9,45,28.6,44.9,28.3,44.8"/>
	<path fill="#2B5179" d="M35.6,42c0-1.3,0.9-3,3.1-3c1.9,0,3.1,1.1,3.1,2.8c0,1.7-1.2,3.1-3.1,3.1C36.5,45,35.6,43.3,35.6,42
		 M40.7,42.1c0-1.7-1-2.8-2.2-2.8c-0.9,0-1.9,0.5-1.9,2.4c0,1.6,0.9,2.8,2.3,2.8C39.5,44.6,40.7,44.3,40.7,42.1"/>
	<path fill="#2B5179" d="M47,41.3c0-1.2,0-1.4,0-1.6c0-0.3-0.1-0.4-0.3-0.4c-0.1,0-0.2,0-0.3,0c-0.1,0-0.1,0-0.1-0.1
		c0-0.1,0.1-0.1,0.2-0.1c0.4,0,0.9,0,1,0c0.3,0,0.8,0,1.1,0c0.5,0,1,0,1.4,0.3c0.2,0.1,0.5,0.5,0.5,1c0,0.6-0.2,1.1-1,1.7
		c0.7,0.9,1.2,1.5,1.7,2c0.4,0.4,0.7,0.5,0.9,0.5c0.1,0,0.2,0,0.2,0c0.1,0,0.1,0,0.1,0.1c0,0.1-0.1,0.1-0.1,0.1h-0.7
		c-0.4,0-0.6,0-0.8-0.1c-0.3-0.2-0.6-0.5-1-1.1c-0.3-0.4-0.7-0.9-0.8-1c0,0-0.1-0.1-0.1-0.1l-0.7,0c0,0-0.1,0-0.1,0.1v0.1
		c0,0.7,0,1.3,0,1.6c0,0.2,0.1,0.4,0.3,0.4c0.1,0,0.3,0,0.4,0c0.1,0,0.1,0,0.1,0.1c0,0.1-0.1,0.1-0.2,0.1c-0.4,0-1,0-1.1,0
		c-0.1,0-0.6,0-0.9,0c-0.1,0-0.2,0-0.2-0.1c0,0,0-0.1,0.1-0.1c0.1,0,0.2,0,0.3,0c0.2,0,0.2-0.2,0.2-0.4c0-0.3,0-0.9,0-1.6V41.3z
		 M47.9,41.9c0,0.1,0,0.1,0.1,0.1c0.2,0.1,0.4,0.1,0.6,0.1c0.3,0,0.4,0,0.5-0.1c0.2-0.2,0.4-0.5,0.4-1.1c0-1.1-0.7-1.4-1.2-1.4
		c-0.2,0-0.3,0-0.4,0c-0.1,0-0.1,0-0.1,0.1V41.9z"/>
	<path fill="#2B5179" d="M57.4,39.5l-1.1,0c-0.4,0-0.6,0.1-0.7,0.2c-0.1,0.1-0.1,0.2-0.1,0.3c0,0.1,0,0.1-0.1,0.1
		c-0.1,0-0.1,0-0.1-0.1c0-0.1,0.1-0.8,0.2-0.9c0-0.1,0-0.1,0.1-0.1c0.1,0,0.1,0.1,0.3,0.1c0.2,0,0.5,0,0.8,0h3c0.2,0,0.4,0,0.5,0
		c0.1,0,0.2,0,0.2,0c0.1,0,0.1,0,0.1,0.2c0,0.2,0,0.7,0,0.9c0,0.1,0,0.1-0.1,0.1c-0.1,0-0.1,0-0.1-0.2l0-0.1c0-0.2-0.2-0.4-0.9-0.4
		l-1,0v3.1c0,0.7,0,1.3,0,1.6c0,0.2,0.1,0.4,0.3,0.4c0.1,0,0.3,0,0.4,0c0.1,0,0.1,0,0.1,0.1c0,0.1-0.1,0.1-0.1,0.1c-0.5,0-1,0-1.2,0
		c-0.2,0-0.7,0-1,0c-0.1,0-0.2,0-0.2-0.1c0,0,0-0.1,0.1-0.1c0.1,0,0.2,0,0.3,0c0.2,0,0.2-0.2,0.2-0.4c0-0.3,0-0.9,0-1.6V39.5z"/>
	<path fill="#2B5179" d="M71.3,41.3c0-1.2,0-1.4,0-1.6c0-0.3-0.1-0.4-0.3-0.4c-0.1,0-0.2,0-0.3,0c-0.1,0-0.1,0-0.1-0.1
		c0-0.1,0.1-0.1,0.2-0.1c0.4,0,0.9,0,1.1,0c0.3,0,0.8,0,1.1,0c1,0,1.3,0.3,1.4,0.4c0.2,0.2,0.4,0.5,0.4,0.9c0,1.1-0.8,1.8-1.9,1.8
		c0,0-0.1,0-0.2,0c0,0-0.1,0-0.1-0.1c0-0.1,0.1-0.1,0.2-0.1c0.4,0,1-0.5,1-1.3c0-0.3,0-0.8-0.4-1.1c-0.3-0.3-0.6-0.3-0.8-0.3
		c-0.1,0-0.2,0-0.3,0c0,0-0.1,0.1-0.1,0.1v3c0,0.7,0,1.3,0,1.6c0,0.2,0.1,0.4,0.3,0.4c0.1,0,0.3,0,0.4,0c0.1,0,0.1,0,0.1,0.1
		c0,0.1-0.1,0.1-0.1,0.1c-0.5,0-1,0-1.2,0c-0.2,0-0.7,0-1,0c-0.1,0-0.2,0-0.2-0.1c0,0,0-0.1,0.1-0.1c0.1,0,0.2,0,0.3,0
		c0.2,0,0.2-0.2,0.2-0.4c0-0.3,0-0.9,0-1.6V41.3z"/>
	<path fill="#2B5179" d="M79.9,41.3c0-1.2,0-1.4,0-1.6c0-0.3-0.1-0.4-0.3-0.4c-0.1,0-0.2,0-0.3,0c-0.1,0-0.1,0-0.1-0.1
		c0-0.1,0.1-0.1,0.2-0.1c0.4,0,0.9,0,1,0c0.3,0,0.8,0,1.1,0c0.5,0,1,0,1.4,0.3c0.2,0.1,0.5,0.5,0.5,1c0,0.6-0.2,1.1-1,1.7
		c0.7,0.9,1.2,1.5,1.6,2c0.4,0.4,0.7,0.5,0.9,0.5c0.1,0,0.2,0,0.2,0c0.1,0,0.1,0,0.1,0.1c0,0.1-0.1,0.1-0.1,0.1h-0.7
		c-0.4,0-0.6,0-0.8-0.1c-0.3-0.2-0.6-0.5-1-1.1c-0.3-0.4-0.7-0.9-0.8-1c0,0-0.1-0.1-0.1-0.1l-0.7,0c0,0-0.1,0-0.1,0.1v0.1
		c0,0.7,0,1.3,0,1.6c0,0.2,0.1,0.4,0.3,0.4c0.1,0,0.3,0,0.4,0c0.1,0,0.1,0,0.1,0.1c0,0.1-0.1,0.1-0.2,0.1c-0.4,0-1,0-1.1,0
		c-0.1,0-0.6,0-0.9,0c-0.1,0-0.2,0-0.2-0.1c0,0,0-0.1,0.1-0.1c0.1,0,0.2,0,0.3,0c0.2,0,0.2-0.2,0.2-0.4c0-0.3,0-0.9,0-1.6V41.3z
		 M80.8,41.9c0,0.1,0,0.1,0.1,0.1c0.2,0.1,0.4,0.1,0.6,0.1c0.3,0,0.4,0,0.5-0.1c0.2-0.2,0.4-0.5,0.4-1.1c0-1.1-0.7-1.4-1.2-1.4
		c-0.2,0-0.3,0-0.4,0c-0.1,0-0.1,0-0.1,0.1V41.9z"/>
	<path fill="#2B5179" d="M88.7,42c0-1.3,0.9-3,3.1-3c1.9,0,3.1,1.1,3.1,2.8c0,1.7-1.2,3.1-3.1,3.1C89.6,45,88.7,43.3,88.7,42
		 M93.8,42.1c0-1.7-1-2.8-2.2-2.8c-0.9,0-1.9,0.5-1.9,2.4c0,1.6,0.9,2.8,2.3,2.8C92.6,44.6,93.8,44.3,93.8,42.1"/>
	<path fill="#2B5179" d="M99.5,41.3c0-1.2,0-1.4,0-1.6c0-0.3-0.1-0.4-0.3-0.4c-0.1,0-0.2,0-0.3,0c-0.1,0-0.1,0-0.1-0.1
		c0-0.1,0.1-0.1,0.2-0.1c0.4,0,0.9,0,1.1,0c0.3,0,0.8,0,1.1,0c1,0,1.3,0.3,1.4,0.4c0.2,0.2,0.4,0.5,0.4,0.9c0,1.1-0.8,1.8-1.9,1.8
		c0,0-0.1,0-0.2,0c0,0-0.1,0-0.1-0.1c0-0.1,0.1-0.1,0.2-0.1c0.4,0,1-0.5,1-1.3c0-0.3,0-0.8-0.4-1.1c-0.3-0.3-0.6-0.3-0.8-0.3
		c-0.1,0-0.2,0-0.3,0c0,0-0.1,0.1-0.1,0.1v3c0,0.7,0,1.3,0,1.6c0,0.2,0.1,0.4,0.3,0.4c0.1,0,0.3,0,0.4,0c0.1,0,0.1,0,0.1,0.1
		c0,0.1-0.1,0.1-0.1,0.1c-0.5,0-1,0-1.2,0c-0.2,0-0.7,0-1,0c-0.1,0-0.2,0-0.2-0.1c0,0,0-0.1,0.1-0.1c0.1,0,0.2,0,0.3,0
		c0.2,0,0.2-0.2,0.2-0.4c0-0.3,0-0.9,0-1.6V41.3z"/>
	<path fill="#2B5179" d="M108.1,41.3c0-1.2,0-1.4,0-1.6c0-0.3-0.1-0.4-0.3-0.4c-0.1,0-0.2,0-0.3,0c-0.1,0-0.1,0-0.1-0.1
		c0-0.1,0.1-0.1,0.2-0.1c0.4,0,0.9,0,1.1,0c0.2,0,1.8,0,1.9,0c0.1,0,0.3,0,0.3,0c0,0,0.1,0,0.1,0s0,0,0,0.1c0,0.1,0,0.1-0.1,0.5
		c0,0.1,0,0.4,0,0.5c0,0,0,0.1-0.1,0.1s-0.1,0-0.1-0.1c0-0.1,0-0.2,0-0.3c-0.1-0.1-0.1-0.2-0.5-0.3c-0.1,0-0.9,0-1.1,0
		c0,0-0.1,0-0.1,0.1v1.9c0,0.1,0,0.1,0.1,0.1c0.2,0,1,0,1.2,0c0.2,0,0.3,0,0.4-0.1c0.1-0.1,0.1-0.1,0.1-0.1c0,0,0.1,0,0.1,0.1
		c0,0,0,0.2-0.1,0.6c0,0.2,0,0.5,0,0.5c0,0.1,0,0.1-0.1,0.1c-0.1,0-0.1,0-0.1-0.1c0-0.1,0-0.2,0-0.3c0-0.2-0.1-0.3-0.4-0.3
		c-0.1,0-0.9,0-1.1,0c0,0,0,0,0,0.1v0.6c0,0.3,0,1,0,1.2c0,0.5,0.1,0.6,0.9,0.6c0.2,0,0.5,0,0.7-0.1c0.2-0.1,0.3-0.3,0.3-0.6
		c0-0.1,0-0.1,0.1-0.1c0.1,0,0.1,0.1,0.1,0.1c0,0.2-0.1,0.7-0.1,0.8c-0.1,0.2-0.1,0.2-0.4,0.2c-1.1,0-1.7,0-2.1,0c-0.2,0-0.7,0-1,0
		c-0.1,0-0.2,0-0.2-0.1c0,0,0-0.1,0.1-0.1c0.1,0,0.2,0,0.3,0c0.2,0,0.2-0.2,0.2-0.4c0-0.3,0-0.9,0-1.6V41.3z"/>
	<path fill="#2B5179" d="M116.2,41.3c0-1.2,0-1.4,0-1.6c0-0.3-0.1-0.4-0.3-0.4c-0.1,0-0.2,0-0.3,0c-0.1,0-0.1,0-0.1-0.1
		c0-0.1,0.1-0.1,0.2-0.1c0.4,0,0.9,0,1,0c0.3,0,0.8,0,1.1,0c0.5,0,1,0,1.4,0.3c0.2,0.1,0.5,0.5,0.5,1c0,0.6-0.2,1.1-1,1.7
		c0.7,0.9,1.2,1.5,1.6,2c0.4,0.4,0.7,0.5,0.9,0.5c0.1,0,0.2,0,0.2,0c0.1,0,0.1,0,0.1,0.1c0,0.1-0.1,0.1-0.1,0.1h-0.7
		c-0.4,0-0.6,0-0.8-0.1c-0.3-0.2-0.6-0.5-1-1.1c-0.3-0.4-0.7-0.9-0.8-1c0,0-0.1-0.1-0.1-0.1l-0.7,0c0,0-0.1,0-0.1,0.1v0.1
		c0,0.7,0,1.3,0,1.6c0,0.2,0.1,0.4,0.3,0.4c0.1,0,0.3,0,0.4,0c0.1,0,0.1,0,0.1,0.1c0,0.1-0.1,0.1-0.2,0.1c-0.4,0-1,0-1.1,0
		c-0.1,0-0.6,0-0.9,0c-0.1,0-0.2,0-0.2-0.1c0,0,0-0.1,0.1-0.1c0.1,0,0.2,0,0.3,0c0.2,0,0.2-0.2,0.2-0.4c0-0.3,0-0.9,0-1.6V41.3z
		 M117.1,41.9c0,0.1,0,0.1,0.1,0.1c0.2,0.1,0.4,0.1,0.6,0.1c0.3,0,0.4,0,0.5-0.1c0.2-0.2,0.4-0.5,0.4-1.1c0-1.1-0.7-1.4-1.2-1.4
		c-0.2,0-0.3,0-0.4,0c-0.1,0-0.1,0-0.1,0.1V41.9z"/>
	<path fill="#2B5179" d="M126.6,39.5l-1.1,0c-0.4,0-0.6,0.1-0.7,0.2c-0.1,0.1-0.1,0.2-0.1,0.3c0,0.1,0,0.1-0.1,0.1
		c-0.1,0-0.1,0-0.1-0.1c0-0.1,0.1-0.8,0.2-0.9c0-0.1,0-0.1,0.1-0.1c0.1,0,0.1,0.1,0.3,0.1c0.2,0,0.5,0,0.8,0h3c0.2,0,0.4,0,0.5,0
		c0.1,0,0.2,0,0.2,0c0.1,0,0.1,0,0.1,0.2c0,0.2,0,0.7,0,0.9c0,0.1,0,0.1-0.1,0.1c-0.1,0-0.1,0-0.1-0.2l0-0.1c0-0.2-0.2-0.4-0.9-0.4
		l-1,0v3.1c0,0.7,0,1.3,0,1.6c0,0.2,0.1,0.4,0.3,0.4c0.1,0,0.3,0,0.4,0c0.1,0,0.1,0,0.1,0.1c0,0.1-0.1,0.1-0.1,0.1c-0.5,0-1,0-1.2,0
		c-0.2,0-0.7,0-1,0c-0.1,0-0.2,0-0.2-0.1c0,0,0-0.1,0.1-0.1c0.1,0,0.2,0,0.3,0c0.2,0,0.2-0.2,0.2-0.4c0-0.3,0-0.9,0-1.6V39.5z"/>
	<path fill="#2B5179" d="M134.2,41.3c0-1.2,0-1.4,0-1.6c0-0.3-0.1-0.4-0.3-0.4c-0.1,0-0.2,0-0.3,0c-0.1,0-0.1,0-0.1-0.1
		c0,0,0.1-0.1,0.2-0.1c0.3,0,0.8,0,1,0c0.2,0,0.6,0,0.9,0c0.1,0,0.2,0,0.2,0.1c0,0.1,0,0.1-0.1,0.1s-0.1,0-0.2,0
		c-0.2,0-0.3,0.2-0.3,0.4c0,0.2,0,0.5,0,1.6v1.3c0,0.7,0,1.3,0,1.7c0,0.2,0.1,0.3,0.3,0.4c0.1,0,0.3,0,0.4,0c0.1,0,0.1,0,0.1,0.1
		c0,0.1-0.1,0.1-0.1,0.1c-0.5,0-1,0-1.2,0c-0.2,0-0.7,0-1,0c-0.1,0-0.2,0-0.2-0.1c0,0,0-0.1,0.1-0.1c0.1,0,0.2,0,0.3,0
		c0.2,0,0.2-0.2,0.2-0.4c0-0.3,0-0.9,0-1.7V41.3z"/>
	<path fill="#2B5179" d="M141,41.3c0-1.2,0-1.4,0-1.6c0-0.3-0.1-0.4-0.3-0.4c-0.1,0-0.2,0-0.3,0c-0.1,0-0.1,0-0.1-0.1
		c0-0.1,0.1-0.1,0.2-0.1c0.4,0,0.9,0,1.1,0c0.2,0,1.8,0,1.9,0c0.1,0,0.3,0,0.3,0c0,0,0.1,0,0.1,0c0,0,0,0,0,0.1c0,0.1,0,0.1-0.1,0.5
		c0,0.1,0,0.4,0,0.5c0,0,0,0.1-0.1,0.1s-0.1,0-0.1-0.1c0-0.1,0-0.2,0-0.3c-0.1-0.1-0.1-0.2-0.5-0.3c-0.1,0-0.9,0-1.1,0
		c0,0-0.1,0-0.1,0.1v1.9c0,0.1,0,0.1,0.1,0.1c0.2,0,1,0,1.2,0c0.2,0,0.3,0,0.4-0.1c0.1-0.1,0.1-0.1,0.1-0.1c0,0,0.1,0,0.1,0.1
		c0,0,0,0.2-0.1,0.6c0,0.2,0,0.5,0,0.5c0,0.1,0,0.1-0.1,0.1c-0.1,0-0.1,0-0.1-0.1c0-0.1,0-0.2,0-0.3c0-0.2-0.1-0.3-0.4-0.3
		c-0.1,0-0.9,0-1.1,0c0,0,0,0,0,0.1v0.6c0,0.3,0,1,0,1.2c0,0.5,0.1,0.6,0.9,0.6c0.2,0,0.5,0,0.7-0.1c0.2-0.1,0.3-0.3,0.3-0.6
		c0-0.1,0-0.1,0.1-0.1c0.1,0,0.1,0.1,0.1,0.1c0,0.2-0.1,0.7-0.1,0.8c-0.1,0.2-0.1,0.2-0.4,0.2c-1.1,0-1.7,0-2.1,0c-0.2,0-0.7,0-1,0
		c-0.1,0-0.2,0-0.2-0.1c0,0,0-0.1,0.1-0.1c0.1,0,0.2,0,0.3,0c0.2,0,0.2-0.2,0.2-0.4c0-0.3,0-0.9,0-1.6V41.3z"/>
	<path fill="#2B5179" d="M148.1,44.8c-0.1-0.1-0.1-0.1-0.1-0.3c0-0.4,0-0.9,0-1c0-0.1,0-0.2,0.1-0.2c0.1,0,0.1,0.1,0.1,0.1
		c0,0.1,0,0.3,0.1,0.4c0.2,0.6,0.6,0.8,1.1,0.8c0.7,0,1-0.5,1-0.9c0-0.4-0.1-0.7-0.7-1.2l-0.3-0.3c-0.8-0.7-1.1-1.2-1.1-1.8
		c0-0.8,0.7-1.4,1.8-1.4c0.5,0,0.8,0.1,1,0.1c0.1,0,0.1,0,0.1,0.1c0,0.1,0,0.3,0,0.9c0,0.2,0,0.2-0.1,0.2c-0.1,0-0.1,0-0.1-0.1
		c0-0.1,0-0.3-0.2-0.5c-0.1-0.1-0.3-0.4-0.8-0.4c-0.6,0-0.9,0.3-0.9,0.8c0,0.3,0.2,0.6,0.8,1.1l0.2,0.2c0.9,0.7,1.2,1.2,1.2,1.9
		c0,0.4-0.2,1-0.7,1.3c-0.4,0.2-0.8,0.3-1.2,0.3C148.7,45,148.4,44.9,148.1,44.8"/>
</g>
</svg>
